<svg id="ComboBox" xmlns="http://www.w3.org/2000/svg" width="24" height="24" viewBox="0 0 24 24"><defs><style>.cls-1{fill:#919191;}.cls-2{fill:#121212;}</style></defs><g id="Group_1216" data-name="Group 1216"><path id="Path_543" data-name="Path 543" class="cls-1" d="M19.86,3.86c-.74-.75-6.16,3.47-9.25,6.56A14.16,14.16,0,0,0,9,12.32a3.41,3.41,0,0,1,1.38.85,3.94,3.94,0,0,1,.49.59,3.15,3.15,0,0,1,.49,1.05,14.58,14.58,0,0,0,2-1.7C16.39,10,20.6,4.6,19.86,3.86"/><path id="Path_544" data-name="Path 544" class="cls-2" d="M6.24,13.57C3.4,15.22,6,17.45,4,19.44c1.44,1.45,3.73.7,5-.56s2.12-2.87,1-4.44a2.66,2.66,0,0,0-3.65-.93l-.1.06"/></g></svg>