<?xml version="1.0" encoding="utf-8"?>
<!-- Generator: Adobe Illustrator 25.0.0, SVG Export Plug-In . SVG Version: 6.00 Build 0)  -->
<svg version="1.1" id="ComboBox" xmlns="http://www.w3.org/2000/svg" xmlns:xlink="http://www.w3.org/1999/xlink" x="0px" y="0px"
	 width="24px" height="24px" viewBox="0 0 24 24" style="enable-background:new 0 0 24 24;" xml:space="preserve">
<style type="text/css">
	.st0{fill:#C0BFC0;}
	.st1{fill:#FFFFFF;}
</style>
<path id="Path_543" class="st0" d="M19.9,3.9c-0.7-0.8-6.2,3.5-9.2,6.6C10,11,9.5,11.6,9,12.3c0.5,0.2,1,0.5,1.4,0.9
	c0.2,0.2,0.3,0.4,0.5,0.6c0.2,0.3,0.4,0.7,0.5,1.1c0.7-0.5,1.4-1.1,2-1.7C16.4,10,20.6,4.6,19.9,3.9"/>
<path id="Path_544" class="st1" d="M6.2,13.6C3.4,15.2,6,17.5,4,19.4c1.4,1.5,3.7,0.7,5-0.6s2.1-2.9,1-4.4c-0.7-1.3-2.4-1.7-3.6-0.9
	c0,0,0,0,0,0L6.2,13.6"/>
</svg>
